<svg xmlns="http://www.w3.org/2000/svg" width="64" height="64" viewBox="0 0 64 64" fill="none">
  <defs>
    <linearGradient id="bg" x1="8" y1="6" x2="56" y2="58" gradientUnits="userSpaceOnUse">
      <stop offset="0" stop-color="#06111A"/>
      <stop offset="1" stop-color="#0A1823"/>
    </linearGradient>
    <linearGradient id="core" x1="19" y1="18" x2="45" y2="46" gradientUnits="userSpaceOnUse">
      <stop offset="0" stop-color="#FF6A1A"/>
      <stop offset="0.52" stop-color="#FF9B3D"/>
      <stop offset="1" stop-color="#A6FF00"/>
    </linearGradient>
    <linearGradient id="ring" x1="10" y1="8" x2="55" y2="55" gradientUnits="userSpaceOnUse">
      <stop offset="0" stop-color="#7CE7FF"/>
      <stop offset="1" stop-color="#3B82F6"/>
    </linearGradient>
  </defs>
  <rect width="64" height="64" rx="16" fill="url(#bg)"/>
  <path d="M18 11.5C23.7 7.7 30.9 6.4 37.7 8C44.9 9.8 51.1 14.8 54 21.7C54.8 23.7 55.4 25.8 55.6 28" stroke="url(#ring)" stroke-width="4.5" stroke-linecap="round"/>
  <path d="M46 52.5C40.3 56.3 33.1 57.6 26.3 56C19.1 54.2 12.9 49.2 10 42.3C9.2 40.3 8.6 38.2 8.4 36" stroke="url(#ring)" stroke-width="4.5" stroke-linecap="round"/>
  <path d="M27.2 18.3H36.8L44.6 31.9L36.8 45.7H27.2L19.4 31.9L27.2 18.3Z" fill="url(#core)"/>
  <path d="M32 23L37.2 31.9L32 41L26.8 31.9L32 23Z" fill="#07111A" fill-opacity="0.92"/>
  <circle cx="32" cy="31.9" r="4.3" fill="#F8FAFC"/>
</svg>
